<svg width="268" height="44" viewBox="0 0 268 44" fill="none" xmlns="http://www.w3.org/2000/svg">
<path d="M8.208 35V14.552H0.144V9.8H22.104V14.552H14.04V35H8.208ZM36.6179 15.344C38.1539 15.344 39.5219 15.656 40.7219 16.28C41.9459 16.88 42.9059 17.816 43.6019 19.088C44.2979 20.336 44.6459 21.944 44.6459 23.912V35H39.0299V24.776C39.0299 23.216 38.6819 22.064 37.9859 21.32C37.3139 20.576 36.3539 20.204 35.1059 20.204C34.2179 20.204 33.4139 20.396 32.6939 20.78C31.9979 21.14 31.4459 21.704 31.0379 22.472C30.6539 23.24 30.4619 24.224 30.4619 25.424V35H24.8459V8.288H30.4619V20.996L29.2019 19.376C29.8979 18.08 30.8939 17.084 32.1899 16.388C33.4859 15.692 34.9619 15.344 36.6179 15.344ZM59.4892 35.288C57.2812 35.288 55.3372 34.856 53.6572 33.992C52.0012 33.128 50.7172 31.952 49.8052 30.464C48.8932 28.952 48.4372 27.236 48.4372 25.316C48.4372 23.372 48.8812 21.656 49.7692 20.168C50.6812 18.656 51.9172 17.48 53.4772 16.64C55.0372 15.776 56.8012 15.344 58.7692 15.344C60.6652 15.344 62.3692 15.752 63.8812 16.568C65.4172 17.36 66.6292 18.512 67.5172 20.024C68.4052 21.512 68.8492 23.3 68.8492 25.388C68.8492 25.604 68.8372 25.856 68.8132 26.144C68.7892 26.408 68.7652 26.66 68.7412 26.9H53.0092V23.624H65.7892L63.6292 24.596C63.6292 23.588 63.4252 22.712 63.0172 21.968C62.6092 21.224 62.0452 20.648 61.3252 20.24C60.6052 19.808 59.7652 19.592 58.8052 19.592C57.8452 19.592 56.9932 19.808 56.2492 20.24C55.5292 20.648 54.9652 21.236 54.5572 22.004C54.1492 22.748 53.9452 23.636 53.9452 24.668V25.532C53.9452 26.588 54.1732 27.524 54.6292 28.34C55.1092 29.132 55.7692 29.744 56.6092 30.176C57.4732 30.584 58.4812 30.788 59.6332 30.788C60.6652 30.788 61.5652 30.632 62.3332 30.32C63.1252 30.008 63.8452 29.54 64.4932 28.916L67.4812 32.156C66.5932 33.164 65.4772 33.944 64.1332 34.496C62.7892 35.024 61.2412 35.288 59.4892 35.288ZM83.1794 35V9.8H94.6274C97.3634 9.8 99.7754 10.328 101.863 11.384C103.951 12.416 105.583 13.868 106.759 15.74C107.935 17.612 108.523 19.832 108.523 22.4C108.523 24.944 107.935 27.164 106.759 29.06C105.583 30.932 103.951 32.396 101.863 33.452C99.7754 34.484 97.3634 35 94.6274 35H83.1794ZM89.0114 30.212H94.3394C96.0194 30.212 97.4714 29.9 98.6954 29.276C99.9434 28.628 100.903 27.716 101.575 26.54C102.271 25.364 102.619 23.984 102.619 22.4C102.619 20.792 102.271 19.412 101.575 18.26C100.903 17.084 99.9434 16.184 98.6954 15.56C97.4714 14.912 96.0194 14.588 94.3394 14.588H89.0114V30.212ZM122.138 35.288C119.93 35.288 117.986 34.856 116.306 33.992C114.65 33.128 113.366 31.952 112.454 30.464C111.542 28.952 111.086 27.236 111.086 25.316C111.086 23.372 111.53 21.656 112.418 20.168C113.33 18.656 114.566 17.48 116.126 16.64C117.686 15.776 119.45 15.344 121.418 15.344C123.314 15.344 125.018 15.752 126.53 16.568C128.066 17.36 129.278 18.512 130.166 20.024C131.054 21.512 131.498 23.3 131.498 25.388C131.498 25.604 131.486 25.856 131.462 26.144C131.438 26.408 131.414 26.66 131.39 26.9H115.658V23.624H128.438L126.278 24.596C126.278 23.588 126.074 22.712 125.666 21.968C125.258 21.224 124.694 20.648 123.974 20.24C123.254 19.808 122.414 19.592 121.454 19.592C120.494 19.592 119.642 19.808 118.898 20.24C118.178 20.648 117.614 21.236 117.206 22.004C116.798 22.748 116.594 23.636 116.594 24.668V25.532C116.594 26.588 116.822 27.524 117.278 28.34C117.758 29.132 118.418 29.744 119.258 30.176C120.122 30.584 121.13 30.788 122.282 30.788C123.314 30.788 124.214 30.632 124.982 30.32C125.774 30.008 126.494 29.54 127.142 28.916L130.13 32.156C129.242 33.164 128.126 33.944 126.782 34.496C125.438 35.024 123.89 35.288 122.138 35.288ZM140.141 35L132.005 15.632H137.801L144.569 32.3H141.689L148.709 15.632H154.109L145.937 35H140.141ZM166.992 35V9.8H171.816L186.684 27.944H184.344V9.8H190.104V35H185.316L170.412 16.856H172.752V35H166.992ZM205.282 35.288C203.074 35.288 201.13 34.856 199.45 33.992C197.794 33.128 196.51 31.952 195.598 30.464C194.686 28.952 194.23 27.236 194.23 25.316C194.23 23.372 194.674 21.656 195.562 20.168C196.474 18.656 197.71 17.48 199.27 16.64C200.83 15.776 202.594 15.344 204.562 15.344C206.458 15.344 208.162 15.752 209.674 16.568C211.21 17.36 212.422 18.512 213.31 20.024C214.198 21.512 214.642 23.3 214.642 25.388C214.642 25.604 214.63 25.856 214.606 26.144C214.582 26.408 214.558 26.66 214.534 26.9H198.802V23.624H211.582L209.422 24.596C209.422 23.588 209.218 22.712 208.81 21.968C208.402 21.224 207.838 20.648 207.118 20.24C206.398 19.808 205.558 19.592 204.598 19.592C203.638 19.592 202.786 19.808 202.042 20.24C201.322 20.648 200.758 21.236 200.35 22.004C199.942 22.748 199.738 23.636 199.738 24.668V25.532C199.738 26.588 199.966 27.524 200.422 28.34C200.902 29.132 201.562 29.744 202.402 30.176C203.266 30.584 204.274 30.788 205.426 30.788C206.458 30.788 207.358 30.632 208.126 30.32C208.918 30.008 209.638 29.54 210.286 28.916L213.274 32.156C212.386 33.164 211.27 33.944 209.926 34.496C208.582 35.024 207.034 35.288 205.282 35.288ZM222.458 35L215.474 15.632H220.766L226.562 32.3H224.042L230.09 15.632H234.842L240.71 32.3H238.19L244.166 15.632H249.134L242.114 35H236.678L231.53 20.708H233.186L227.858 35H222.458ZM257.979 35.288C256.323 35.288 254.727 35.096 253.191 34.712C251.679 34.304 250.479 33.8 249.591 33.2L251.463 29.168C252.351 29.72 253.395 30.176 254.595 30.536C255.819 30.872 257.019 31.04 258.195 31.04C259.491 31.04 260.403 30.884 260.931 30.572C261.483 30.26 261.759 29.828 261.759 29.276C261.759 28.82 261.543 28.484 261.111 28.268C260.703 28.028 260.151 27.848 259.455 27.728C258.759 27.608 257.991 27.488 257.151 27.368C256.335 27.248 255.507 27.092 254.667 26.9C253.827 26.684 253.059 26.372 252.363 25.964C251.667 25.556 251.103 25.004 250.671 24.308C250.263 23.612 250.059 22.712 250.059 21.608C250.059 20.384 250.407 19.304 251.103 18.368C251.823 17.432 252.855 16.7 254.199 16.172C255.543 15.62 257.151 15.344 259.023 15.344C260.343 15.344 261.687 15.488 263.055 15.776C264.423 16.064 265.563 16.484 266.475 17.036L264.603 21.032C263.667 20.48 262.719 20.108 261.759 19.916C260.823 19.7 259.911 19.592 259.023 19.592C257.775 19.592 256.863 19.76 256.287 20.096C255.711 20.432 255.423 20.864 255.423 21.392C255.423 21.872 255.627 22.232 256.035 22.472C256.467 22.712 257.031 22.904 257.727 23.048C258.423 23.192 259.179 23.324 259.995 23.444C260.835 23.54 261.675 23.696 262.515 23.912C263.355 24.128 264.111 24.44 264.783 24.848C265.479 25.232 266.043 25.772 266.475 26.468C266.907 27.14 267.123 28.028 267.123 29.132C267.123 30.332 266.763 31.4 266.043 32.336C265.323 33.248 264.279 33.968 262.911 34.496C261.567 35.024 259.923 35.288 257.979 35.288Z" fill="white"/>
</svg>
